<svg width="878" height="316" viewBox="0 0 878 316" fill="none" xmlns="http://www.w3.org/2000/svg">
<g clip-path="url(#clip0)">
<path d="M113.222 6.85831C113.222 3.07057 110.15 0 106.36 0C102.57 0 99.498 3.07057 99.498 6.85831V221.601C99.498 225.389 102.57 228.459 106.36 228.459C110.15 228.459 113.222 225.389 113.222 221.601V6.85831Z" fill="white"/>
<path d="M0 114.231L0 114.231C0 117.942 3.00995 120.95 6.7229 120.95H78.3647C82.0777 120.95 85.0876 117.942 85.0876 114.231C85.0876 110.52 82.0777 107.511 78.3647 107.511H6.7229C3.00995 107.511 0 110.52 0 114.231Z" fill="white"/>
<path d="M198.672 55.2636V55.2636C198.672 58.6631 201.429 61.4189 204.83 61.4189L269.039 61.4189C272.44 61.4189 275.197 58.6631 275.197 55.2636C275.197 51.8641 272.44 49.1082 269.039 49.1082H204.83C201.429 49.1082 198.672 51.8641 198.672 55.2636Z" fill="white"/>
<path d="M198.672 117.432V117.432C198.672 120.831 201.429 123.587 204.83 123.587H246.204C249.606 123.587 252.363 120.831 252.363 117.432C252.363 114.032 249.606 111.276 246.204 111.276H204.83C201.429 111.276 198.672 114.032 198.672 117.432Z" fill="white"/>
<path d="M179.539 179.601V179.602C179.539 183.001 182.296 185.757 185.698 185.757H246.203C249.604 185.757 252.362 183.001 252.362 179.601C252.362 176.202 249.604 173.446 246.203 173.446H185.698C182.296 173.446 179.539 176.202 179.539 179.601Z" fill="white"/>
<path d="M208.237 55.3815C208.237 51.9168 205.407 49.0542 201.991 49.6374C194.406 50.9317 187.348 54.5625 181.836 60.1051C174.834 67.1461 170.9 76.6959 170.9 86.6533C170.9 96.611 174.834 106.161 181.836 113.202C187.381 118.777 194.683 122.035 202.399 123.15C205.745 123.633 208.476 120.804 208.39 117.426C208.306 114.084 205.461 111.524 202.22 110.702C197.965 109.624 194.022 107.296 190.866 104.122C186.258 99.4889 183.67 93.2054 183.67 86.6533C183.67 80.1015 186.258 73.8178 190.866 69.1849C194.152 65.8798 198.135 63.4948 202.613 62.1757C205.728 61.2583 208.237 58.6265 208.237 55.3815Z" fill="white"/>
<path d="M244.648 179.485C244.648 182.949 247.478 185.812 250.894 185.229C258.48 183.935 265.538 180.304 271.05 174.761C278.052 167.72 281.985 158.17 281.985 148.213C281.985 138.255 278.052 128.705 271.05 121.664C265.504 116.089 258.202 112.831 250.486 111.716C247.141 111.233 244.411 114.062 244.496 117.44C244.579 120.782 247.425 123.343 250.666 124.164C254.921 125.242 258.865 127.57 262.02 130.744C266.628 135.377 269.215 141.661 269.215 148.213C269.215 154.765 266.628 161.048 262.02 165.681C258.734 168.986 254.75 171.371 250.273 172.69C247.158 173.608 244.648 176.24 244.648 179.485Z" fill="white"/>
<path d="M525.387 55.8633C526.511 53.1059 525.241 49.9982 522.55 48.9221C519.859 47.846 516.767 49.209 515.643 51.9664L464.094 178.436C462.97 181.194 464.24 184.302 466.931 185.378C469.622 186.454 472.714 185.091 473.838 182.333L525.387 55.8633Z" fill="white"/>
<path d="M542.586 76.3414C541.427 73.4809 538.304 72.0349 535.611 73.1118C532.918 74.1886 531.675 77.3804 532.834 80.2409L573.173 179.785C574.332 182.645 577.455 184.091 580.148 183.015C582.84 181.938 584.084 178.746 582.924 175.885L542.586 76.3414Z" fill="white"/>
<path d="M534.909 119.193C537.785 119.193 540.116 121.523 540.116 124.397C540.116 127.271 537.785 129.602 534.909 129.602H509.295C506.419 129.602 504.088 127.271 504.088 124.397C504.088 121.523 506.419 119.193 509.295 119.193H534.909Z" fill="white"/>
<path d="M682.295 49.1094C678.439 49.1094 675.313 51.7206 675.313 54.9419C675.313 58.163 678.439 60.7745 682.295 60.7745H728.286C732.142 60.7745 735.267 58.163 735.267 54.9419C735.267 51.7206 732.142 49.1094 728.286 49.1094H682.295Z" fill="white"/>
<path d="M675.313 179.925C675.313 183.147 678.394 185.758 682.197 185.758H728.384C732.187 185.758 735.267 183.147 735.267 179.925C735.267 176.704 732.187 174.093 728.384 174.093H682.197C678.394 174.093 675.313 176.704 675.313 179.925Z" fill="white"/>
<path d="M685.94 49.1064C668.43 49.1064 651.634 56.3048 639.253 69.1182C626.869 81.9314 619.913 99.3101 619.913 117.431C619.913 135.551 626.869 152.93 639.253 165.743C651.634 178.557 668.43 185.755 685.94 185.755V174.449C671.14 173.673 657.31 168.442 646.977 157.749C636.644 147.056 630.84 132.553 630.84 117.431C630.84 102.309 636.644 87.8058 646.977 77.1128C657.31 66.4198 671.14 61.1881 685.94 60.4126V49.1064Z" fill="white"/>
<path d="M824.222 49.1094C820.509 49.1094 817.499 51.7206 817.499 54.9419C817.499 58.163 820.509 60.7745 824.222 60.7745H868.511C872.223 60.7745 875.233 58.163 875.233 54.9419C875.233 51.7206 872.223 49.1094 868.511 49.1094H824.222Z" fill="white"/>
<path d="M774.374 115.766V121.598V127.431H847.816C853.973 127.431 858.965 124.819 858.965 121.598C858.965 118.377 853.973 115.766 847.816 115.766H774.374Z" fill="white"/>
<path d="M817.499 179.925C817.499 183.147 820.466 185.758 824.126 185.758H868.605C872.266 185.758 875.233 183.147 875.233 179.925C875.233 176.704 872.266 174.093 868.605 174.093H824.126C820.466 174.093 817.499 176.704 817.499 179.925Z" fill="white"/>
<path d="M827.725 49.1064C810.861 49.1064 794.69 56.3048 782.765 69.1182C770.843 81.9314 764.144 99.3101 764.144 117.431C764.144 135.551 770.843 152.93 782.765 165.743C794.69 178.557 810.861 185.755 827.725 185.755V174.525C813.839 173.673 800.12 168.51 790.157 157.802C780.191 147.095 774.594 132.573 774.594 117.431C774.594 102.288 780.191 87.7665 790.157 77.0592C800.12 66.3519 813.474 61.6049 827.725 60.3368V49.1064Z" fill="white"/>
<path d="M346.144 66.7402H346.144C343.135 66.7402 340.695 69.1782 340.695 72.1856V180.311C340.695 183.319 343.135 185.757 346.144 185.757C349.152 185.757 351.592 183.319 351.592 180.311V72.1856C351.592 69.1782 349.152 66.7402 346.144 66.7402Z" fill="white"/>
<path d="M416.512 49.8474C419.354 49.8474 421.657 52.1499 421.657 54.9901C421.657 57.8304 419.354 60.1328 416.512 60.1328H345.84C342.998 60.1328 340.695 57.8304 340.695 54.9901C340.695 52.1499 342.998 49.8474 345.84 49.8474H416.512Z" fill="white"/>
<path d="M421.657 113.499V113.499C421.657 116.339 419.354 118.642 416.512 118.642H369.998C367.157 118.642 364.853 116.339 364.853 113.499C364.853 110.659 367.157 108.356 369.998 108.356H416.512C419.354 108.356 421.657 110.659 421.657 113.499Z" fill="white"/>
<path d="M412.472 115.936C413.326 117.536 414.997 118.57 416.808 118.442C423.253 117.988 426.334 115.791 431.64 109.936C437.699 103.254 441.102 94.1911 441.102 84.741C441.102 75.2909 437.699 66.2279 431.64 59.5458C427.199 54.6448 421.596 51.3191 415.544 49.8941C412.132 49.0911 409.485 52.3346 410.212 55.761C410.75 58.3076 413.059 59.9783 415.537 60.7799C418.896 61.8662 421.425 64.2582 424.396 67.5374C428.532 72.1001 430.856 78.2884 430.856 84.741C430.856 91.1936 428.532 97.3818 424.396 101.944C421.7 104.919 420.026 106.852 416.49 107.962C413.042 109.045 410.767 112.749 412.472 115.936Z" fill="white"/>
<path d="M35.1863 281.88H15.4719L12.0172 289.911C11.166 291.888 10.7404 293.363 10.7404 294.339C10.7404 295.116 11.1034 295.804 11.8294 296.403C12.5804 296.98 14.1826 297.356 16.636 297.531V298.919H0.601562V297.531C2.72946 297.155 4.10636 296.666 4.7322 296.066C6.00895 294.866 7.42339 292.426 8.9755 288.747L26.8874 246.862H28.2018L45.9259 289.197C47.3529 292.601 48.6422 294.815 49.7938 295.842C50.9705 296.841 52.5976 297.405 54.6756 297.531V298.919H34.5856V297.531C36.6133 297.43 37.9776 297.093 38.6787 296.517C39.4046 295.94 39.7675 295.24 39.7675 294.416C39.7675 293.314 39.267 291.576 38.2655 289.197L35.1863 281.88ZM34.1349 279.102L25.498 258.535L16.636 279.102H34.1349ZM116.823 246.862L117.987 264.165H116.823C115.271 258.985 113.055 255.257 110.176 252.979C107.297 250.703 103.843 249.565 99.8123 249.565C96.4325 249.565 93.3783 250.428 90.6497 252.155C87.9208 253.857 85.7679 256.583 84.1909 260.337C82.6387 264.09 81.8626 268.756 81.8626 274.335C81.8626 278.94 82.6011 282.931 84.0781 286.309C85.5551 289.686 87.7706 292.276 90.7248 294.076C93.7039 295.878 97.096 296.779 100.901 296.779C104.206 296.779 107.122 296.079 109.651 294.678C112.179 293.252 114.958 290.436 117.987 286.234L119.151 286.983C116.598 291.512 113.618 294.828 110.214 296.929C106.809 299.032 102.766 300.082 98.0849 300.082C89.6482 300.082 83.1142 296.954 78.483 290.698C75.0283 286.046 73.3009 280.565 73.3009 274.26C73.3009 269.181 74.44 264.515 76.7181 260.262C78.9962 256.007 82.1256 252.716 86.1058 250.389C90.1113 248.038 94.48 246.862 99.2113 246.862C102.891 246.862 106.521 247.763 110.101 249.565C111.153 250.116 111.904 250.389 112.354 250.389C113.03 250.389 113.618 250.152 114.119 249.678C114.77 249.001 115.233 248.064 115.509 246.862H116.823ZM122.268 264.539H138.302V265.929H137.514C136.387 265.929 135.536 266.179 134.96 266.678C134.41 267.154 134.134 267.754 134.134 268.48C134.134 269.456 134.547 270.807 135.373 272.535L143.747 289.874L151.445 270.882C151.871 269.857 152.084 268.843 152.084 267.842C152.084 267.391 151.996 267.054 151.821 266.83C151.62 266.554 151.307 266.341 150.882 266.191C150.456 266.016 149.705 265.929 148.629 265.929V264.539H159.819V265.929C158.893 266.029 158.179 266.228 157.679 266.529C157.178 266.83 156.627 267.391 156.026 268.218C155.801 268.568 155.376 269.531 154.75 271.109L140.743 305.412C139.391 308.74 137.614 311.253 135.411 312.955C133.233 314.657 131.13 315.509 129.102 315.509C127.625 315.509 126.411 315.082 125.46 314.232C124.508 313.38 124.033 312.404 124.033 311.305C124.033 310.254 124.371 309.402 125.047 308.751C125.748 308.125 126.699 307.814 127.901 307.814C128.727 307.814 129.853 308.089 131.28 308.64C132.282 309.016 132.907 309.201 133.158 309.201C133.909 309.201 134.722 308.815 135.599 308.038C136.5 307.263 137.401 305.762 138.302 303.535L140.743 297.567L128.389 271.634C128.013 270.857 127.412 269.894 126.586 268.743C125.96 267.867 125.447 267.28 125.047 266.979C124.471 266.58 123.545 266.228 122.268 265.929V264.539ZM172.098 270.47C175.428 265.841 179.02 263.527 182.876 263.527C186.405 263.527 189.485 265.04 192.113 268.068C194.742 271.07 196.056 275.187 196.056 280.416C196.056 286.52 194.028 291.437 189.973 295.165C186.493 298.368 182.613 299.969 178.332 299.969C176.329 299.969 174.289 299.606 172.211 298.88C170.158 298.156 168.056 297.068 165.903 295.616V259.997C165.903 256.094 165.802 253.692 165.602 252.791C165.427 251.892 165.139 251.28 164.738 250.953C164.338 250.628 163.837 250.466 163.236 250.466C162.535 250.466 161.659 250.665 160.608 251.066L160.082 249.753L170.409 245.549H172.098V270.47ZM172.098 272.872V293.44C173.375 294.691 174.689 295.641 176.041 296.292C177.418 296.916 178.82 297.23 180.247 297.23C182.525 297.23 184.641 295.979 186.593 293.476C188.571 290.974 189.56 287.333 189.56 282.555C189.56 278.15 188.571 274.772 186.593 272.422C184.641 270.045 182.413 268.856 179.909 268.856C178.582 268.856 177.255 269.193 175.929 269.87C174.927 270.37 173.651 271.371 172.098 272.872ZM206.909 277.488C206.884 282.593 208.123 286.597 210.626 289.498C213.13 292.4 216.072 293.852 219.452 293.852C221.703 293.852 223.656 293.239 225.309 292.014C226.986 290.762 228.388 288.636 229.516 285.632L230.678 286.383C230.152 289.81 228.625 292.938 226.097 295.765C223.568 298.568 220.402 299.969 216.598 299.969C212.466 299.969 208.924 298.368 205.97 295.165C203.041 291.937 201.576 287.609 201.576 282.179C201.576 276.299 203.078 271.721 206.083 268.444C209.112 265.141 212.904 263.488 217.461 263.488C221.317 263.488 224.482 264.765 226.961 267.317C229.439 269.845 230.678 273.235 230.678 277.488H206.909ZM206.909 275.31H222.831C222.705 273.109 222.442 271.559 222.041 270.658C221.415 269.255 220.477 268.156 219.225 267.355C217.999 266.554 216.709 266.153 215.359 266.153C213.28 266.153 211.415 266.966 209.762 268.593C208.135 270.195 207.184 272.434 206.909 275.31ZM245.36 263.527V271.258C248.24 266.104 251.194 263.527 254.223 263.527C255.599 263.527 256.74 263.952 257.641 264.801C258.541 265.628 258.992 266.591 258.992 267.692C258.992 268.668 258.667 269.494 258.015 270.169C257.366 270.846 256.588 271.183 255.687 271.183C254.811 271.183 253.822 270.758 252.722 269.906C251.645 269.031 250.844 268.593 250.318 268.593C249.868 268.593 249.378 268.843 248.853 269.343C247.727 270.37 246.563 272.059 245.36 274.409V290.886C245.36 292.789 245.599 294.228 246.074 295.204C246.4 295.878 246.975 296.442 247.802 296.892C248.629 297.343 249.816 297.567 251.369 297.567V298.919H233.758V297.567C235.51 297.567 236.813 297.292 237.663 296.741C238.289 296.342 238.727 295.703 238.977 294.828C239.103 294.403 239.165 293.188 239.165 291.187V277.864C239.165 273.861 239.077 271.482 238.902 270.733C238.753 269.958 238.451 269.394 238.001 269.044C237.576 268.694 237.037 268.519 236.386 268.519C235.61 268.519 234.734 268.707 233.758 269.08L233.382 267.731L243.784 263.527H245.36ZM312.992 246.862V264.464H311.601C311.15 261.086 310.336 258.396 309.161 256.395C308.01 254.393 306.357 252.804 304.203 251.63C302.052 250.453 299.824 249.864 297.519 249.864C294.917 249.864 292.764 250.665 291.061 252.266C289.358 253.844 288.508 255.644 288.508 257.672C288.508 259.222 289.046 260.636 290.123 261.913C291.674 263.789 295.368 266.292 301.2 269.42C305.957 271.971 309.198 273.935 310.926 275.31C312.678 276.662 314.017 278.263 314.944 280.115C315.895 281.968 316.371 283.907 316.371 285.933C316.371 289.787 314.869 293.113 311.864 295.917C308.886 298.694 305.043 300.082 300.337 300.082C298.858 300.082 297.47 299.969 296.169 299.745C295.391 299.619 293.778 299.168 291.324 298.393C288.895 297.593 287.357 297.191 286.705 297.191C286.079 297.191 285.579 297.379 285.203 297.755C284.853 298.131 284.59 298.906 284.415 300.082H283.024V282.63H284.415C285.064 286.283 285.943 289.022 287.043 290.85C288.145 292.65 289.822 294.153 292.076 295.353C294.353 296.555 296.844 297.155 299.548 297.155C302.678 297.155 305.143 296.329 306.946 294.678C308.773 293.026 309.687 291.074 309.687 288.822C309.687 287.573 309.337 286.309 308.636 285.032C307.959 283.755 306.895 282.568 305.442 281.466C304.466 280.717 301.8 279.126 297.444 276.7C293.088 274.247 289.984 272.296 288.132 270.846C286.304 269.394 284.915 267.793 283.964 266.042C283.012 264.289 282.537 262.363 282.537 260.262C282.537 256.609 283.939 253.468 286.744 250.84C289.546 248.188 293.114 246.862 297.444 246.862C300.149 246.862 303.015 247.526 306.045 248.852C307.446 249.477 308.435 249.789 309.01 249.789C309.661 249.789 310.187 249.601 310.588 249.228C311.014 248.826 311.351 248.038 311.601 246.862H312.992ZM328.725 277.488C328.7 282.593 329.939 286.597 332.442 289.498C334.946 292.4 337.888 293.852 341.267 293.852C343.521 293.852 345.473 293.239 347.125 292.014C348.802 290.762 350.205 288.636 351.331 285.632L352.495 286.383C351.97 289.81 350.442 292.938 347.913 295.765C345.386 298.568 342.218 299.969 338.413 299.969C334.282 299.969 330.74 298.368 327.785 295.165C324.856 291.937 323.393 287.609 323.393 282.179C323.393 276.299 324.895 271.721 327.899 268.444C330.928 265.141 334.722 263.488 339.276 263.488C343.132 263.488 346.298 264.765 348.778 267.317C351.256 269.845 352.495 273.235 352.495 277.488H328.725ZM328.725 275.31H344.647C344.521 273.109 344.258 271.559 343.858 270.658C343.233 269.255 342.293 268.156 341.043 267.355C339.815 266.554 338.526 266.153 337.174 266.153C335.096 266.153 333.231 266.966 331.579 268.593C329.951 270.195 329.001 272.434 328.725 275.31ZM386.329 285.858C385.402 290.387 383.588 293.878 380.884 296.329C378.179 298.756 375.189 299.969 371.91 299.969C368.005 299.969 364.599 298.331 361.694 295.052C358.791 291.774 357.338 287.346 357.338 281.767C357.338 276.363 358.94 271.971 362.145 268.593C365.375 265.216 369.244 263.527 373.749 263.527C377.128 263.527 379.908 264.428 382.085 266.228C384.264 268.004 385.353 269.857 385.353 271.783C385.353 272.733 385.039 273.511 384.413 274.111C383.813 274.685 382.963 274.973 381.86 274.973C380.384 274.973 379.269 274.497 378.519 273.547C378.092 273.022 377.806 272.02 377.654 270.545C377.53 269.069 377.028 267.942 376.152 267.167C375.276 266.415 374.063 266.042 372.51 266.042C370.006 266.042 367.992 266.966 366.464 268.818C364.437 271.271 363.422 274.51 363.422 278.539C363.422 282.643 364.424 286.27 366.426 289.424C368.455 292.552 371.183 294.115 374.612 294.115C377.066 294.115 379.269 293.276 381.222 291.599C382.599 290.449 383.939 288.36 385.24 285.333L386.329 285.858ZM421.439 264.539V285.369C421.439 289.349 421.526 291.787 421.701 292.688C421.902 293.564 422.203 294.177 422.603 294.527C423.028 294.877 423.517 295.052 424.068 295.052C424.844 295.052 425.72 294.841 426.696 294.416L427.221 295.729L416.933 299.969H415.243V292.688C412.289 295.891 410.035 297.904 408.484 298.731C406.931 299.557 405.293 299.969 403.565 299.969C401.638 299.969 399.961 299.418 398.534 298.319C397.13 297.191 396.154 295.754 395.605 294.001C395.054 292.251 394.778 289.774 394.778 286.571V271.22C394.778 269.595 394.603 268.467 394.253 267.842C393.902 267.216 393.377 266.742 392.674 266.416C391.999 266.065 390.76 265.903 388.957 265.929V264.539H401.012V287.547C401.012 290.75 401.563 292.851 402.663 293.852C403.791 294.853 405.141 295.353 406.72 295.353C407.797 295.353 409.01 295.016 410.362 294.339C411.738 293.664 413.366 292.377 415.243 290.474V270.995C415.243 269.044 414.88 267.731 414.154 267.054C413.453 266.354 411.977 265.978 409.723 265.929V264.539H421.439ZM439.802 263.527V271.258C442.682 266.104 445.634 263.527 448.663 263.527C450.041 263.527 451.18 263.952 452.081 264.801C452.983 265.628 453.433 266.591 453.433 267.692C453.433 268.668 453.109 269.494 452.457 270.169C451.805 270.846 451.03 271.183 450.128 271.183C449.253 271.183 448.264 270.758 447.161 269.906C446.085 269.031 445.283 268.593 444.758 268.593C444.307 268.593 443.82 268.843 443.295 269.343C442.167 270.37 441.005 272.059 439.802 274.409V290.886C439.802 292.789 440.039 294.228 440.515 295.204C440.84 295.878 441.417 296.442 442.244 296.892C443.068 297.343 444.258 297.567 445.811 297.567V298.919H428.198V297.567C429.952 297.567 431.253 297.292 432.103 296.741C432.729 296.342 433.169 295.703 433.419 294.828C433.543 294.403 433.607 293.188 433.607 291.187V277.864C433.607 273.861 433.519 271.482 433.344 270.733C433.192 269.958 432.893 269.394 432.442 269.044C432.015 268.694 431.479 268.519 430.827 268.519C430.052 268.519 429.174 268.707 428.198 269.08L427.824 267.731L438.225 263.527H439.802ZM464.097 245.549C465.148 245.549 466.037 245.925 466.764 246.674C467.515 247.4 467.889 248.288 467.889 249.339C467.889 250.389 467.515 251.29 466.764 252.042C466.037 252.791 465.148 253.167 464.097 253.167C463.046 253.167 462.145 252.791 461.393 252.042C460.643 251.29 460.267 250.389 460.267 249.339C460.267 248.288 460.63 247.4 461.357 246.674C462.106 245.925 463.021 245.549 464.097 245.549ZM467.214 263.527V291.149C467.214 293.301 467.364 294.74 467.665 295.466C467.99 296.166 468.453 296.692 469.054 297.042C469.679 297.392 470.807 297.567 472.433 297.567V298.919H455.723V297.567C457.4 297.567 458.528 297.405 459.103 297.08C459.68 296.754 460.13 296.216 460.455 295.466C460.805 294.715 460.981 293.275 460.981 291.149V277.9C460.981 274.172 460.867 271.758 460.643 270.658C460.468 269.857 460.192 269.306 459.816 269.005C459.44 268.681 458.928 268.519 458.276 268.519C457.575 268.519 456.725 268.707 455.723 269.08L455.198 267.731L465.563 263.527H467.214ZM486.742 253.242V264.539H494.776V267.167H486.742V289.46C486.742 291.687 487.054 293.188 487.68 293.965C488.331 294.74 489.158 295.129 490.158 295.129C490.984 295.129 491.785 294.877 492.561 294.377C493.339 293.852 493.939 293.09 494.364 292.088H495.829C494.951 294.539 493.712 296.391 492.11 297.642C490.508 298.87 488.857 299.482 487.154 299.482C486.003 299.482 484.877 299.168 483.774 298.543C482.672 297.894 481.858 296.98 481.333 295.803C480.807 294.604 480.544 292.763 480.544 290.286V267.167H475.099V265.929C476.477 265.378 477.878 264.451 479.305 263.151C480.758 261.825 482.046 260.262 483.174 258.46C483.749 257.508 484.55 255.77 485.577 253.242H486.742ZM496.203 264.539H512.238V265.929H511.45C510.324 265.929 509.471 266.179 508.897 266.678C508.346 267.154 508.07 267.754 508.07 268.48C508.07 269.456 508.482 270.807 509.309 272.535L517.683 289.874L525.382 270.882C525.807 269.857 526.019 268.843 526.019 267.842C526.019 267.391 525.931 267.054 525.756 266.83C525.557 266.554 525.243 266.341 524.818 266.191C524.393 266.016 523.641 265.929 522.565 265.929V264.539H533.754V265.929C532.829 266.029 532.116 266.228 531.616 266.529C531.114 266.83 530.563 267.391 529.962 268.218C529.738 268.568 529.311 269.531 528.685 271.109L514.68 305.412C513.327 308.74 511.55 311.253 509.348 312.955C507.169 314.657 505.067 315.509 503.039 315.509C501.561 315.509 500.348 315.082 499.395 314.232C498.444 313.38 497.97 312.404 497.97 311.305C497.97 310.254 498.307 309.402 498.982 308.751C499.683 308.125 500.636 307.814 501.837 307.814C502.663 307.814 503.789 308.089 505.216 308.64C506.218 309.016 506.844 309.201 507.094 309.201C507.846 309.201 508.658 308.815 509.536 308.038C510.435 307.263 511.336 305.762 512.238 303.535L514.68 297.567L502.326 271.634C501.95 270.857 501.349 269.894 500.523 268.743C499.897 267.867 499.384 267.28 498.982 266.979C498.408 266.58 497.481 266.228 496.203 265.929V264.539ZM599.732 246.862L600.897 264.165H599.732C598.182 258.985 595.966 255.257 593.087 252.979C590.207 250.703 586.753 249.565 582.721 249.565C579.342 249.565 576.289 250.428 573.559 252.155C570.831 253.857 568.678 256.583 567.101 260.337C565.548 264.09 564.773 268.756 564.773 274.335C564.773 278.94 565.512 282.931 566.988 286.309C568.466 289.686 570.682 292.276 573.634 294.076C576.614 295.878 580.006 296.779 583.811 296.779C587.116 296.779 590.032 296.079 592.561 294.678C595.088 293.252 597.868 290.436 600.897 286.234L602.061 286.983C599.508 291.512 596.528 294.828 593.123 296.929C589.72 299.032 585.676 300.082 580.995 300.082C572.559 300.082 566.025 296.954 561.393 290.698C557.939 286.046 556.211 280.565 556.211 274.26C556.211 269.181 557.349 264.515 559.629 260.262C561.906 256.007 565.035 252.716 569.015 250.389C573.021 248.038 577.389 246.862 582.121 246.862C585.802 246.862 589.431 247.763 593.012 249.565C594.063 250.116 594.815 250.389 595.263 250.389C595.941 250.389 596.528 250.152 597.03 249.678C597.68 249.001 598.143 248.064 598.419 246.862H599.732ZM623.953 263.527C629.161 263.527 633.342 265.504 636.495 269.456C639.174 272.834 640.513 276.713 640.513 281.09C640.513 284.169 639.774 287.284 638.298 290.436C636.822 293.589 634.78 295.966 632.178 297.567C629.599 299.168 626.72 299.969 623.541 299.969C618.358 299.969 614.24 297.904 611.187 293.777C608.609 290.299 607.318 286.396 607.318 282.066C607.318 278.915 608.094 275.787 609.647 272.684C611.223 269.556 613.289 267.255 615.842 265.779C618.397 264.276 621.099 263.527 623.953 263.527ZM622.789 265.965C621.462 265.965 620.123 266.366 618.771 267.167C617.444 267.942 616.367 269.319 615.543 271.294C614.716 273.271 614.304 275.812 614.304 278.915C614.304 283.919 615.291 288.234 617.269 291.862C619.273 295.492 621.9 297.305 625.156 297.305C627.583 297.305 629.587 296.303 631.163 294.302C632.74 292.3 633.53 288.86 633.53 283.981C633.53 277.877 632.214 273.073 629.587 269.569C627.809 267.167 625.543 265.965 622.789 265.965ZM655.796 270.846C658.3 268.344 659.778 266.904 660.229 266.529C661.355 265.579 662.568 264.84 663.871 264.315C665.172 263.789 666.463 263.527 667.738 263.527C669.891 263.527 671.743 264.152 673.296 265.403C674.847 266.655 675.888 268.467 676.413 270.846C678.992 267.842 681.169 265.877 682.946 264.953C684.723 264.001 686.552 263.527 688.43 263.527C690.256 263.527 691.871 264.001 693.273 264.953C694.7 265.877 695.828 267.404 696.652 269.531C697.203 270.983 697.479 273.259 697.479 276.363V291.149C697.479 293.301 697.641 294.779 697.968 295.579C698.218 296.128 698.682 296.604 699.357 297.006C700.032 297.379 701.134 297.567 702.661 297.567V298.919H685.689V297.567H686.402C687.879 297.567 689.03 297.279 689.857 296.705C690.431 296.303 690.846 295.667 691.096 294.789C691.196 294.364 691.245 293.152 691.245 291.149V276.363C691.245 273.56 690.908 271.583 690.233 270.432C689.254 268.83 687.691 268.03 685.537 268.03C684.211 268.03 682.871 268.367 681.519 269.044C680.192 269.693 678.577 270.921 676.676 272.721L676.601 273.135L676.676 274.749V291.149C676.676 293.502 676.8 294.964 677.052 295.541C677.325 296.117 677.827 296.604 678.554 297.006C679.28 297.379 680.519 297.567 682.271 297.567V298.919H664.884V297.567C666.787 297.567 668.088 297.343 668.789 296.892C669.515 296.442 670.017 295.765 670.293 294.866C670.417 294.439 670.479 293.201 670.479 291.149V276.363C670.479 273.56 670.066 271.546 669.24 270.319C668.14 268.717 666.599 267.917 664.621 267.917C663.269 267.917 661.929 268.279 660.603 269.005C658.526 270.107 656.924 271.346 655.796 272.721V291.149C655.796 293.401 655.948 294.866 656.247 295.541C656.574 296.216 657.035 296.73 657.638 297.08C658.264 297.405 659.515 297.567 661.393 297.567V298.919H644.382V297.567C645.959 297.567 647.061 297.405 647.687 297.08C648.311 296.73 648.787 296.192 649.112 295.466C649.439 294.715 649.601 293.275 649.601 291.149V278.014C649.601 274.234 649.488 271.796 649.264 270.694C649.088 269.87 648.813 269.306 648.437 269.005C648.061 268.681 647.548 268.519 646.897 268.519C646.196 268.519 645.359 268.707 644.382 269.08L643.818 267.731L654.183 263.527H655.796V270.846ZM702.96 267.955L713.552 263.676H714.979V271.708C716.756 268.681 718.534 266.567 720.311 265.365C722.112 264.139 724.003 263.527 725.981 263.527C729.435 263.527 732.315 264.878 734.618 267.579C737.446 270.882 738.86 275.187 738.86 280.49C738.86 286.42 737.158 291.324 733.755 295.204C730.95 298.381 727.421 299.969 723.165 299.969C721.311 299.969 719.709 299.707 718.359 299.181C717.357 298.805 716.229 298.056 714.979 296.929V307.402C714.979 309.752 715.116 311.241 715.391 311.866C715.69 312.517 716.192 313.03 716.893 313.406C717.619 313.781 718.92 313.969 720.798 313.969V315.357H702.775V313.969H703.712C705.09 313.995 706.265 313.732 707.242 313.181C707.718 312.906 708.081 312.455 708.331 311.83C708.607 311.23 708.745 309.678 708.745 307.175V274.674C708.745 272.447 708.645 271.032 708.444 270.432C708.243 269.832 707.919 269.381 707.468 269.08C707.043 268.781 706.453 268.63 705.703 268.63C705.101 268.63 704.338 268.805 703.411 269.157L702.96 267.955ZM714.979 273.923V286.759C714.979 289.535 715.09 291.362 715.317 292.238C715.667 293.69 716.517 294.964 717.869 296.066C719.247 297.168 720.973 297.719 723.052 297.719C725.556 297.719 727.583 296.741 729.134 294.789C731.163 292.238 732.176 288.647 732.176 284.018C732.176 278.765 731.024 274.723 728.722 271.896C727.119 269.945 725.216 268.969 723.013 268.969C721.813 268.969 720.623 269.268 719.446 269.87C718.544 270.319 717.055 271.67 714.979 273.923ZM763.382 293.965C759.851 296.692 757.636 298.267 756.734 298.694C755.384 299.32 753.944 299.632 752.417 299.632C750.039 299.632 748.074 298.818 746.521 297.191C744.993 295.566 744.231 293.427 744.231 290.775C744.231 289.097 744.607 287.647 745.357 286.42C746.384 284.72 748.161 283.119 750.689 281.616C753.244 280.115 757.473 278.289 763.382 276.137V274.785C763.382 271.358 762.831 269.005 761.729 267.731C760.652 266.454 759.076 265.816 756.997 265.816C755.42 265.816 754.169 266.24 753.244 267.092C752.291 267.942 751.817 268.918 751.817 270.02L751.891 272.195C751.891 273.346 751.59 274.234 750.99 274.86C750.413 275.486 749.65 275.799 748.7 275.799C747.773 275.799 747.01 275.475 746.408 274.824C745.833 274.172 745.545 273.284 745.545 272.159C745.545 270.007 746.647 268.03 748.849 266.228C751.052 264.428 754.143 263.527 758.125 263.527C761.178 263.527 763.681 264.039 765.634 265.066C767.112 265.841 768.202 267.054 768.902 268.707C769.353 269.783 769.577 271.984 769.577 275.31V286.983C769.577 290.261 769.639 292.276 769.765 293.026C769.891 293.752 770.09 294.241 770.366 294.49C770.667 294.74 771.004 294.866 771.38 294.866C771.78 294.866 772.13 294.779 772.431 294.604C772.957 294.277 773.972 293.363 775.473 291.862V293.965C772.669 297.719 769.99 299.593 767.437 299.593C766.211 299.593 765.234 299.168 764.508 298.319C763.782 297.467 763.406 296.017 763.382 293.965ZM763.382 291.525V278.426C759.601 279.927 757.161 280.992 756.059 281.616C754.081 282.717 752.667 283.868 751.817 285.07C750.964 286.27 750.539 287.583 750.539 289.009C750.539 290.812 751.077 292.313 752.154 293.515C753.231 294.691 754.47 295.278 755.871 295.278C757.775 295.278 760.278 294.027 763.382 291.525ZM788.09 270.807C792.121 265.954 795.964 263.527 799.619 263.527C801.497 263.527 803.11 264.001 804.462 264.953C805.815 265.877 806.891 267.417 807.692 269.569C808.244 271.07 808.519 273.372 808.519 276.474V291.149C808.519 293.327 808.694 294.802 809.045 295.579C809.32 296.205 809.758 296.692 810.358 297.042C810.984 297.392 812.123 297.567 813.776 297.567V298.919H796.765V297.567H797.479C799.081 297.567 800.194 297.33 800.82 296.854C801.472 296.354 801.922 295.628 802.172 294.678C802.273 294.303 802.322 293.126 802.322 291.149V277.076C802.322 273.948 801.91 271.683 801.083 270.282C800.282 268.856 798.917 268.143 796.99 268.143C794.012 268.143 791.045 269.77 788.09 273.022V291.149C788.09 293.476 788.229 294.915 788.502 295.466C788.855 296.192 789.329 296.73 789.929 297.08C790.555 297.405 791.807 297.567 793.685 297.567V298.919H776.674V297.567H777.426C779.178 297.567 780.355 297.129 780.955 296.254C781.581 295.353 781.895 293.651 781.895 291.149V278.389C781.895 274.26 781.795 271.745 781.594 270.846C781.419 269.945 781.13 269.332 780.731 269.005C780.355 268.681 779.842 268.519 779.191 268.519C778.49 268.519 777.65 268.707 776.674 269.08L776.112 267.731L786.475 263.527H788.09V270.807ZM814.565 264.539H830.599V265.929H829.809C828.683 265.929 827.833 266.179 827.256 266.678C826.705 267.154 826.43 267.754 826.43 268.48C826.43 269.456 826.844 270.807 827.669 272.535L836.043 289.874L843.742 270.882C844.167 269.857 844.38 268.843 844.38 267.842C844.38 267.391 844.293 267.054 844.118 266.83C843.917 266.554 843.603 266.341 843.178 266.191C842.753 266.016 842.001 265.929 840.926 265.929V264.539H852.116V265.929C851.189 266.029 850.475 266.228 849.975 266.529C849.473 266.83 848.924 267.391 848.322 268.218C848.097 268.568 847.672 269.531 847.046 271.109L833.039 305.412C831.687 308.74 829.909 311.253 827.707 312.955C825.53 314.657 823.426 315.509 821.399 315.509C819.92 315.509 818.707 315.082 817.756 314.232C816.806 313.38 816.329 312.404 816.329 311.305C816.329 310.254 816.667 309.402 817.342 308.751C818.045 308.125 818.995 307.814 820.196 307.814C821.023 307.814 822.148 308.089 823.575 308.64C824.577 309.016 825.203 309.201 825.453 309.201C826.205 309.201 827.019 308.815 827.895 308.038C828.796 307.263 829.698 305.762 830.599 303.535L833.039 297.567L820.685 271.634C820.309 270.857 819.709 269.894 818.882 268.743C818.256 267.867 817.744 267.28 817.342 266.979C816.767 266.58 815.84 266.228 814.565 265.929V264.539Z" fill="white"/>
</g>
<defs>
<clipPath id="clip0">
<rect width="878" height="316" fill="white"/>
</clipPath>
</defs>
</svg>
