<svg width="2289" height="823" viewBox="0 0 2289 823" fill="none" xmlns="http://www.w3.org/2000/svg">
<g clip-path="url(#clip0)">
<path d="M295.177 17.862C295.177 7.99709 287.168 0 277.288 0C267.408 0 259.398 7.99709 259.398 17.862V577.145C259.398 587.01 267.408 595.007 277.288 595.007C287.168 595.007 295.177 587.01 295.177 577.145V17.862Z" fill="white"/>
<path d="M0 297.506L0 297.506C0 307.171 7.84712 315.006 17.527 315.006H204.302C213.982 315.006 221.829 307.171 221.829 297.506C221.829 287.841 213.982 280.005 204.302 280.005H17.527C7.84712 280.005 0 287.841 0 297.506Z" fill="white"/>
<path d="M517.951 143.929V143.929C517.951 152.783 525.14 159.96 534.007 159.96H701.402C710.269 159.96 717.457 152.783 717.457 143.929C717.457 135.075 710.269 127.898 701.402 127.898L534.007 127.898C525.14 127.898 517.951 135.075 517.951 143.929Z" fill="white"/>
<path d="M517.951 305.843V305.843C517.951 314.697 525.14 321.874 534.007 321.874H641.871C650.739 321.874 657.927 314.697 657.927 305.843C657.927 296.989 650.739 289.812 641.871 289.812H534.007C525.14 289.812 517.951 296.989 517.951 305.843Z" fill="white"/>
<path d="M468.07 467.759V467.759C468.07 476.613 475.259 483.79 484.126 483.79H641.867C650.735 483.79 657.923 476.613 657.923 467.759C657.923 458.905 650.735 451.728 641.867 451.728H484.126C475.259 451.728 468.07 458.905 468.07 467.759Z" fill="white"/>
<path d="M542.887 144.238C542.887 135.214 535.509 127.759 526.601 129.278C506.827 132.649 488.427 142.105 474.057 156.54C455.802 174.878 445.547 199.75 445.547 225.683C445.547 251.617 455.802 276.489 474.057 294.827C488.512 309.348 507.55 317.833 527.667 320.736C536.389 321.995 543.508 314.626 543.285 305.828C543.066 297.125 535.65 290.456 527.198 288.316C516.107 285.508 505.826 279.445 497.597 271.179C485.586 259.112 478.838 242.748 478.838 225.683C478.838 208.619 485.586 192.254 497.597 180.188C506.166 171.58 516.55 165.368 528.225 161.933C536.344 159.543 542.887 152.689 542.887 144.238Z" fill="white"/>
<path d="M637.813 467.456C637.813 476.479 645.192 483.935 654.097 482.416C673.874 479.045 692.275 469.589 706.644 455.153C724.9 436.816 735.154 411.944 735.154 386.01C735.154 360.076 724.9 335.205 706.644 316.867C692.186 302.346 673.15 293.86 653.034 290.957C644.312 289.698 637.194 297.068 637.417 305.865C637.634 314.568 645.053 321.237 653.501 323.377C664.596 326.185 674.877 332.248 683.103 340.515C695.116 352.581 701.86 368.946 701.86 386.01C701.86 403.074 695.116 419.44 683.103 431.506C674.537 440.114 664.15 446.325 652.477 449.761C644.357 452.15 637.813 459.004 637.813 467.456Z" fill="white"/>
<path d="M1369.72 145.491C1372.65 138.31 1369.33 130.216 1362.32 127.413C1355.3 124.611 1347.24 128.161 1344.31 135.342L1209.92 464.724C1206.99 471.906 1210.3 480 1217.32 482.802C1224.33 485.605 1232.39 482.055 1235.32 474.874L1369.72 145.491Z" fill="white"/>
<path d="M1414.56 198.825C1411.53 191.375 1403.39 187.61 1396.37 190.414C1389.35 193.219 1386.11 201.532 1389.13 208.981L1494.3 468.237C1497.32 475.687 1505.46 479.453 1512.48 476.648C1519.5 473.844 1522.74 465.531 1519.72 458.081L1414.56 198.825Z" fill="white"/>
<path d="M1394.54 310.428C1402.04 310.428 1408.12 316.496 1408.12 323.982C1408.12 331.468 1402.04 337.537 1394.54 337.537H1327.76C1320.26 337.537 1314.19 331.468 1314.19 323.982C1314.19 316.496 1320.26 310.428 1327.76 310.428H1394.54Z" fill="white"/>
<path d="M1778.78 127.902C1768.73 127.902 1760.58 134.703 1760.58 143.093C1760.58 151.482 1768.73 158.283 1778.78 158.283H1898.69C1908.74 158.283 1916.89 151.482 1916.89 143.093C1916.89 134.703 1908.74 127.902 1898.69 127.902H1778.78Z" fill="white"/>
<path d="M1760.58 468.603C1760.58 476.992 1768.61 483.793 1778.53 483.793H1898.94C1908.86 483.793 1916.89 476.992 1916.89 468.603C1916.89 460.213 1908.86 453.412 1898.94 453.412H1778.53C1768.61 453.412 1760.58 460.213 1760.58 468.603Z" fill="white"/>
<path d="M1788.29 127.895C1742.64 127.895 1698.85 146.642 1666.57 180.014C1634.29 213.385 1616.15 258.646 1616.15 305.84C1616.15 353.035 1634.29 398.296 1666.57 431.667C1698.85 465.039 1742.64 483.786 1788.29 483.786V454.34C1749.7 452.321 1713.65 438.695 1686.71 410.846C1659.77 382.997 1644.64 345.225 1644.64 305.84C1644.64 266.456 1659.77 228.684 1686.71 200.835C1713.65 172.986 1749.7 159.36 1788.29 157.341V127.895Z" fill="white"/>
<path d="M2148.8 127.902C2139.12 127.902 2131.27 134.703 2131.27 143.093C2131.27 151.482 2139.12 158.283 2148.8 158.283H2264.26C2273.94 158.283 2281.79 151.482 2281.79 143.093C2281.79 134.703 2273.94 127.902 2264.26 127.902H2148.8Z" fill="white"/>
<path d="M2018.84 301.504V316.694V331.885H2210.31C2226.36 331.885 2239.37 325.084 2239.37 316.694C2239.37 308.305 2226.36 301.504 2210.31 301.504H2018.84Z" fill="white"/>
<path d="M2131.27 468.603C2131.27 476.992 2139.01 483.793 2148.55 483.793H2264.5C2274.05 483.793 2281.79 476.992 2281.79 468.603C2281.79 460.213 2274.05 453.412 2264.5 453.412H2148.55C2139.01 453.412 2131.27 460.213 2131.27 468.603Z" fill="white"/>
<path d="M2157.93 127.895C2113.97 127.895 2071.81 146.642 2040.72 180.014C2009.64 213.385 1992.17 258.646 1992.17 305.84C1992.17 353.035 2009.64 398.296 2040.72 431.667C2071.81 465.039 2113.97 483.786 2157.93 483.786V454.538C2121.73 452.321 2085.96 438.872 2059.99 410.985C2034.01 383.099 2019.42 345.277 2019.42 305.84C2019.42 266.403 2034.01 228.582 2059.99 200.696C2085.96 172.809 2120.78 160.446 2157.93 157.143V127.895Z" fill="white"/>
<path d="M902.421 173.82H902.421C894.576 173.82 888.217 180.17 888.217 188.002V469.608C888.217 477.441 894.576 483.79 902.421 483.79C910.265 483.79 916.625 477.441 916.625 469.608V188.002C916.625 180.17 910.265 173.82 902.421 173.82Z" fill="white"/>
<path d="M1085.87 129.824C1093.28 129.824 1099.29 135.82 1099.29 143.218C1099.29 150.615 1093.28 156.611 1085.87 156.611H901.626C894.218 156.611 888.212 150.615 888.212 143.218C888.212 135.82 894.218 129.824 901.626 129.824H1085.87Z" fill="white"/>
<path d="M1099.29 295.598V295.598C1099.29 302.996 1093.28 308.992 1085.87 308.992H964.608C957.199 308.992 951.194 302.996 951.194 295.598C951.194 288.201 957.199 282.204 964.608 282.204H1085.87C1093.28 282.204 1099.29 288.201 1099.29 295.598Z" fill="white"/>
<path d="M1075.34 301.947C1077.57 306.115 1081.92 308.807 1086.65 308.475C1103.45 307.292 1111.48 301.571 1125.31 286.321C1141.11 268.918 1149.98 245.314 1149.98 220.702C1149.98 196.09 1141.11 172.486 1125.31 155.083C1113.74 142.319 1099.13 133.657 1083.35 129.946C1074.45 127.854 1067.55 136.302 1069.45 145.226C1070.85 151.858 1076.87 156.21 1083.33 158.297C1092.09 161.126 1098.68 167.356 1106.43 175.897C1117.21 187.78 1123.27 203.897 1123.27 220.702C1123.27 237.508 1117.21 253.624 1106.43 265.507C1099.4 273.255 1095.03 278.288 1085.82 281.18C1076.83 284 1070.9 293.648 1075.34 301.947Z" fill="white"/>
<path d="M91.733 734.137H40.3362L31.3295 755.052C29.1105 760.201 28.001 764.043 28.001 766.585C28.001 768.609 28.9474 770.4 30.84 771.962C32.798 773.464 36.975 774.442 43.3711 774.898V778.513H1.56836V774.898C7.11593 773.919 10.7056 772.646 12.3372 771.083C15.6658 767.958 19.3533 761.602 23.3997 752.021L70.0972 642.935H73.524L119.732 753.194C123.452 762.058 126.813 767.825 129.816 770.5C132.883 773.102 137.125 774.57 142.543 774.898V778.513H90.1669V774.898C95.4533 774.637 99.0099 773.758 100.838 772.257C102.73 770.755 103.676 768.931 103.676 766.785C103.676 763.916 102.372 759.389 99.7606 753.194L91.733 734.137ZM88.9917 726.903L66.4749 673.336L43.3711 726.903H88.9917ZM304.564 642.935L307.6 687.999H304.564C300.518 674.509 294.742 664.8 287.236 658.866C279.731 652.938 270.724 649.975 260.217 649.975C251.405 649.975 243.443 652.221 236.329 656.72C229.215 661.152 223.602 668.253 219.491 678.029C215.444 687.805 213.421 699.955 213.421 714.485C213.421 726.48 215.346 736.873 219.197 745.671C223.047 754.468 228.823 761.213 236.525 765.901C244.292 770.594 253.135 772.941 263.055 772.941C271.671 772.941 279.274 771.117 285.866 767.469C292.458 763.754 299.702 756.42 307.6 745.476L310.634 747.428C303.977 759.222 296.21 767.858 287.334 773.33C278.458 778.807 267.918 781.543 255.713 781.543C233.718 781.543 216.684 773.397 204.61 757.104C195.603 744.987 191.1 730.712 191.1 714.291C191.1 701.062 194.07 688.911 200.009 677.834C205.948 666.751 214.106 658.182 224.483 652.121C234.926 645.999 246.315 642.935 258.65 642.935C268.244 642.935 277.708 645.281 287.041 649.975C289.782 651.409 291.74 652.121 292.915 652.121C294.677 652.121 296.21 651.504 297.516 650.269C299.213 648.507 300.42 646.065 301.138 642.935H304.564ZM318.76 688.973H360.562V692.593H358.507C355.57 692.593 353.351 693.243 351.85 694.544C350.414 695.785 349.696 697.347 349.696 699.238C349.696 701.779 350.773 705.299 352.926 709.798L374.758 754.957L394.827 705.494C395.937 702.825 396.491 700.183 396.491 697.575C396.491 696.402 396.263 695.523 395.806 694.939C395.284 694.222 394.468 693.666 393.359 693.277C392.249 692.821 390.291 692.593 387.485 692.593V688.973H416.658V692.593C414.244 692.854 412.383 693.371 411.078 694.155C409.773 694.939 408.337 696.402 406.771 698.554C406.183 699.466 405.074 701.974 403.442 706.083L366.926 795.423C363.402 804.092 358.768 810.638 353.024 815.069C347.346 819.501 341.864 821.72 336.577 821.72C332.727 821.72 329.561 820.608 327.081 818.395C324.601 816.176 323.361 813.635 323.361 810.771C323.361 808.035 324.242 805.816 326.005 804.12C327.832 802.491 330.312 801.679 333.445 801.679C335.598 801.679 338.536 802.396 342.255 803.831C344.866 804.81 346.498 805.294 347.15 805.294C349.108 805.294 351.23 804.287 353.514 802.263C355.864 800.244 358.213 796.335 360.562 790.535L366.926 774.993L334.717 707.451C333.738 705.427 332.172 702.919 330.018 699.922C328.387 697.642 327.049 696.113 326.005 695.329C324.503 694.289 322.088 693.371 318.76 692.593V688.973ZM448.671 704.42C457.351 692.365 466.717 686.337 476.768 686.337C485.971 686.337 493.998 690.279 500.851 698.165C507.704 705.983 511.131 716.704 511.131 730.323C511.131 746.221 505.844 759.028 495.271 768.737C486.199 777.078 476.083 781.249 464.922 781.249C459.701 781.249 454.382 780.303 448.965 778.413C443.613 776.527 438.131 773.691 432.518 769.91V677.145C432.518 666.98 432.257 660.724 431.735 658.377C431.278 656.036 430.527 654.44 429.483 653.589C428.439 652.744 427.134 652.321 425.567 652.321C423.74 652.321 421.455 652.838 418.714 653.884L417.343 650.464L444.266 639.515H448.671V704.42ZM448.671 710.676V764.244C452 767.502 455.426 769.977 458.95 771.673C462.54 773.297 466.195 774.114 469.915 774.114C475.854 774.114 481.369 770.855 486.46 764.338C491.616 757.821 494.194 748.34 494.194 735.895C494.194 724.423 491.616 715.625 486.46 709.503C481.369 703.314 475.561 700.216 469.034 700.216C465.575 700.216 462.116 701.095 458.657 702.858C456.047 704.159 452.718 706.767 448.671 710.676ZM539.423 722.699C539.358 735.995 542.589 746.421 549.115 753.978C555.642 761.536 563.313 765.317 572.124 765.317C577.994 765.317 583.084 763.721 587.395 760.529C591.767 757.27 595.42 751.732 598.361 743.908L601.391 745.865C600.021 754.79 596.039 762.937 589.45 770.299C582.856 777.601 574.602 781.249 564.683 781.249C553.912 781.249 544.677 777.078 536.976 768.737C529.34 760.329 525.522 749.057 525.522 734.916C525.522 719.601 529.438 707.679 537.27 699.143C545.167 690.541 555.054 686.237 566.933 686.237C576.986 686.237 585.24 689.562 591.7 696.207C598.161 702.791 601.391 711.622 601.391 722.699H539.423ZM539.423 717.027H580.935C580.606 711.294 579.921 707.256 578.874 704.91C577.242 701.256 574.797 698.393 571.534 696.307C568.337 694.222 564.973 693.176 561.453 693.176C556.033 693.176 551.171 695.295 546.864 699.532C542.621 703.703 540.141 709.536 539.423 717.027ZM639.669 686.337V706.472C647.176 693.049 654.879 686.337 662.776 686.337C666.363 686.337 669.337 687.443 671.687 689.657C674.032 691.809 675.207 694.316 675.207 697.186C675.207 699.727 674.36 701.879 672.662 703.636C670.969 705.399 668.941 706.278 666.591 706.278C664.308 706.278 661.729 705.171 658.861 702.952C656.054 700.672 653.965 699.532 652.595 699.532C651.42 699.532 650.145 700.183 648.775 701.484C645.84 704.159 642.804 708.558 639.669 714.68V757.593C639.669 762.548 640.293 766.296 641.529 768.837C642.381 770.594 643.879 772.062 646.035 773.235C648.19 774.409 651.287 774.993 655.335 774.993V778.513H609.422V774.993C613.989 774.993 617.386 774.275 619.603 772.841C621.234 771.801 622.376 770.138 623.028 767.858C623.356 766.752 623.518 763.587 623.518 758.377V723.678C623.518 713.251 623.289 707.056 622.833 705.104C622.443 703.086 621.658 701.618 620.483 700.706C619.374 699.794 617.971 699.338 616.272 699.338C614.25 699.338 611.967 699.827 609.422 700.8L608.442 697.286L635.559 686.337H639.669ZM815.989 642.935V688.778H812.363C811.188 679.981 809.066 672.974 806.003 667.764C803.001 662.548 798.69 658.41 793.076 655.352C787.468 652.288 781.659 650.753 775.65 650.753C768.866 650.753 763.253 652.838 758.814 657.009C754.375 661.118 752.158 665.806 752.158 671.089C752.158 675.126 753.562 678.807 756.369 682.133C760.412 687.021 770.042 693.538 785.246 701.685C797.649 708.33 806.098 713.446 810.603 717.027C815.17 720.547 818.662 724.717 821.079 729.539C823.557 734.365 824.799 739.415 824.799 744.692C824.799 754.729 820.884 763.393 813.048 770.694C805.284 777.929 795.265 781.543 782.996 781.543C779.142 781.543 775.522 781.249 772.13 780.665C770.103 780.337 765.898 779.163 759.499 777.145C753.167 775.059 749.157 774.014 747.458 774.014C745.826 774.014 744.523 774.503 743.543 775.482C742.629 776.461 741.944 778.479 741.488 781.543H737.862V736.089H741.488C743.181 745.604 745.47 752.738 748.338 757.498C751.212 762.186 755.584 766.101 761.459 769.226C767.396 772.357 773.89 773.919 780.941 773.919C789.1 773.919 795.527 771.767 800.228 767.469C804.989 763.165 807.373 758.082 807.373 752.216C807.373 748.963 806.46 745.671 804.633 742.345C802.867 739.02 800.094 735.928 796.307 733.059C793.761 731.107 786.811 726.964 775.455 720.647C764.099 714.257 756.007 709.175 751.178 705.399C746.411 701.618 742.791 697.447 740.312 692.887C737.829 688.322 736.592 683.306 736.592 677.834C736.592 668.32 740.246 660.14 747.558 653.294C754.865 646.388 764.166 642.935 775.455 642.935C782.506 642.935 789.98 644.664 797.877 648.117C801.531 649.747 804.109 650.558 805.607 650.558C807.306 650.558 808.676 650.069 809.723 649.096C810.832 648.05 811.711 645.999 812.363 642.935H815.989ZM857.007 722.699C856.94 735.995 860.17 746.421 866.698 753.978C873.225 761.536 880.894 765.317 889.705 765.317C895.58 765.317 900.671 763.721 904.976 760.529C909.348 757.27 913.007 751.732 915.942 743.908L918.977 745.865C917.607 754.79 913.625 762.937 907.031 770.299C900.442 777.601 892.183 781.249 882.264 781.249C871.493 781.249 862.259 777.078 854.556 768.737C846.921 760.329 843.106 749.057 843.106 734.916C843.106 719.601 847.021 707.679 854.852 699.143C862.749 690.541 872.64 686.237 884.514 686.237C894.567 686.237 902.82 689.562 909.286 696.207C915.747 702.791 918.977 711.622 918.977 722.699H857.007ZM857.007 717.027H898.515C898.187 711.294 897.502 707.256 896.46 704.91C894.828 701.256 892.378 698.393 889.12 696.307C885.917 694.222 882.559 693.176 879.034 693.176C873.615 693.176 868.753 695.295 864.448 699.532C860.204 703.703 857.725 709.536 857.007 717.027ZM1007.18 744.497C1004.77 756.292 1000.04 765.384 992.988 771.767C985.937 778.09 978.14 781.249 969.591 781.249C959.41 781.249 950.533 776.983 942.959 768.442C935.39 759.906 931.603 748.373 931.603 733.843C931.603 719.768 935.78 708.33 944.134 699.532C952.555 690.735 962.641 686.337 974.386 686.337C983.197 686.337 990.443 688.683 996.118 693.371C1001.8 697.998 1004.64 702.824 1004.64 707.84C1004.64 710.315 1003.82 712.339 1002.19 713.902C1000.62 715.397 998.407 716.148 995.533 716.148C991.685 716.148 988.778 714.908 986.823 712.434C985.709 711.066 984.963 708.458 984.567 704.615C984.244 700.773 982.935 697.836 980.652 695.818C978.368 693.86 975.205 692.887 971.156 692.887C964.629 692.887 959.377 695.295 955.395 700.116C950.11 706.506 947.464 714.942 947.464 725.435C947.464 736.123 950.076 745.57 955.295 753.784C960.586 761.93 967.698 766.001 976.636 766.001C983.036 766.001 988.778 763.816 993.868 759.45C997.46 756.453 1000.95 751.014 1004.34 743.129L1007.18 744.497ZM1098.72 688.973V743.224C1098.72 753.589 1098.94 759.94 1099.4 762.286C1099.92 764.566 1100.71 766.162 1101.75 767.074C1102.86 767.986 1104.14 768.442 1105.57 768.442C1107.59 768.442 1109.88 767.892 1112.42 766.785L1113.79 770.205L1086.97 781.249H1082.57V762.286C1074.86 770.627 1068.99 775.871 1064.94 778.023C1060.89 780.175 1056.62 781.249 1052.12 781.249C1047.09 781.249 1042.72 779.814 1039 776.95C1035.34 774.014 1032.8 770.272 1031.37 765.706C1029.93 761.146 1029.21 754.696 1029.21 746.354V706.372C1029.21 702.141 1028.75 699.204 1027.84 697.575C1026.93 695.946 1025.56 694.711 1023.73 693.86C1021.97 692.948 1018.74 692.526 1014.03 692.593V688.973H1045.46V748.896C1045.46 757.237 1046.9 762.709 1049.77 765.317C1052.71 767.925 1056.23 769.226 1060.34 769.226C1063.15 769.226 1066.31 768.348 1069.84 766.585C1073.43 764.828 1077.67 761.474 1082.57 756.52V705.788C1082.57 700.706 1081.62 697.286 1079.72 695.523C1077.9 693.699 1074.05 692.721 1068.17 692.593V688.973H1098.72ZM1146.59 686.337V706.472C1154.1 693.049 1161.79 686.337 1169.69 686.337C1173.28 686.337 1176.25 687.443 1178.6 689.657C1180.95 691.809 1182.13 694.316 1182.13 697.186C1182.13 699.727 1181.28 701.879 1179.58 703.636C1177.88 705.399 1175.86 706.278 1173.51 706.278C1171.23 706.278 1168.65 705.171 1165.78 702.952C1162.97 700.672 1160.88 699.532 1159.51 699.532C1158.34 699.532 1157.07 700.183 1155.7 701.484C1152.76 704.159 1149.73 708.558 1146.59 714.68V757.593C1146.59 762.548 1147.21 766.296 1148.45 768.837C1149.3 770.594 1150.8 772.062 1152.96 773.235C1155.11 774.409 1158.21 774.993 1162.26 774.993V778.513H1116.34V774.993C1120.91 774.993 1124.3 774.275 1126.52 772.841C1128.15 771.801 1129.3 770.138 1129.95 767.858C1130.27 766.752 1130.44 763.587 1130.44 758.377V723.678C1130.44 713.251 1130.21 707.056 1129.75 705.104C1129.36 703.086 1128.58 701.618 1127.4 700.706C1126.29 699.794 1124.89 699.338 1123.19 699.338C1121.17 699.338 1118.88 699.827 1116.34 700.8L1115.36 697.286L1142.48 686.337H1146.59ZM1209.93 639.515C1212.67 639.515 1214.99 640.493 1216.88 642.445C1218.84 644.336 1219.82 646.649 1219.82 649.385C1219.82 652.121 1218.84 654.468 1216.88 656.425C1214.99 658.377 1212.67 659.356 1209.93 659.356C1207.19 659.356 1204.84 658.377 1202.88 656.425C1200.92 654.468 1199.94 652.121 1199.94 649.385C1199.94 646.649 1200.89 644.336 1202.79 642.445C1204.74 640.493 1207.12 639.515 1209.93 639.515ZM1218.06 686.337V758.277C1218.06 763.882 1218.45 767.63 1219.23 769.521C1220.08 771.345 1221.29 772.713 1222.85 773.625C1224.48 774.537 1227.42 774.993 1231.66 774.993V778.513H1188.1V774.993C1192.47 774.993 1195.41 774.57 1196.91 773.725C1198.41 772.874 1199.59 771.473 1200.43 769.521C1201.35 767.563 1201.8 763.815 1201.8 758.277V723.772C1201.8 714.063 1201.51 707.774 1200.92 704.91C1200.47 702.824 1199.75 701.39 1198.77 700.606C1197.79 699.76 1196.45 699.338 1194.75 699.338C1192.93 699.338 1190.71 699.827 1188.1 700.8L1186.73 697.286L1213.75 686.337H1218.06ZM1268.97 659.55V688.973H1289.91V695.818H1268.97V753.878C1268.97 759.678 1269.78 763.587 1271.41 765.612C1273.11 767.63 1275.26 768.642 1277.87 768.642C1280.03 768.642 1282.11 767.986 1284.14 766.685C1286.16 765.317 1287.73 763.332 1288.84 760.724H1292.66C1290.37 767.107 1287.14 771.929 1282.96 775.187C1278.78 778.385 1274.48 779.981 1270.04 779.981C1267.04 779.981 1264.1 779.163 1261.23 777.534C1258.36 775.844 1256.23 773.463 1254.86 770.399C1253.49 767.274 1252.81 762.481 1252.81 756.03V695.818H1238.61V692.593C1242.2 691.158 1245.86 688.745 1249.58 685.358C1253.37 681.905 1256.72 677.834 1259.66 673.141C1261.16 670.661 1263.25 666.134 1265.93 659.55H1268.97ZM1293.63 688.973H1335.44V692.593H1333.38C1330.45 692.593 1328.22 693.243 1326.73 694.544C1325.29 695.785 1324.57 697.347 1324.57 699.238C1324.57 701.779 1325.64 705.299 1327.8 709.798L1349.63 754.957L1369.7 705.494C1370.81 702.825 1371.36 700.183 1371.36 697.575C1371.36 696.402 1371.14 695.523 1370.68 694.939C1370.16 694.222 1369.34 693.666 1368.23 693.277C1367.13 692.821 1365.16 692.593 1362.36 692.593V688.973H1391.53V692.593C1389.12 692.854 1387.26 693.371 1385.96 694.155C1384.65 694.939 1383.21 696.402 1381.64 698.554C1381.06 699.466 1379.95 701.974 1378.31 706.083L1341.8 795.423C1338.28 804.092 1333.64 810.638 1327.9 815.069C1322.22 819.501 1316.74 821.72 1311.45 821.72C1307.6 821.72 1304.44 820.608 1301.95 818.395C1299.47 816.176 1298.24 813.635 1298.24 810.771C1298.24 808.035 1299.12 805.816 1300.88 804.12C1302.7 802.491 1305.19 801.679 1308.32 801.679C1310.47 801.679 1313.41 802.396 1317.13 803.831C1319.74 804.81 1321.37 805.294 1322.02 805.294C1323.99 805.294 1326.1 804.287 1328.39 802.263C1330.74 800.244 1333.09 796.335 1335.44 790.535L1341.8 774.993L1309.59 707.451C1308.61 705.427 1307.05 702.919 1304.89 699.922C1303.26 697.642 1301.93 696.113 1300.88 695.329C1299.38 694.289 1296.96 693.371 1293.63 692.593V688.973ZM1563.54 642.935L1566.57 687.999H1563.54C1559.5 674.509 1553.72 664.8 1546.21 658.866C1538.71 652.938 1529.7 649.975 1519.19 649.975C1510.38 649.975 1502.42 652.221 1495.3 656.72C1488.19 661.152 1482.58 668.253 1478.47 678.029C1474.42 687.805 1472.4 699.955 1472.4 714.485C1472.4 726.48 1474.32 736.873 1478.17 745.671C1482.03 754.468 1487.8 761.213 1495.5 765.901C1503.27 770.594 1512.11 772.941 1522.03 772.941C1530.65 772.941 1538.25 771.117 1544.84 767.469C1551.43 763.754 1558.68 756.42 1566.57 745.476L1569.61 747.428C1562.95 759.222 1555.19 767.858 1546.31 773.33C1537.44 778.807 1526.89 781.543 1514.69 781.543C1492.7 781.543 1475.66 773.397 1463.59 757.104C1454.58 744.987 1450.08 730.712 1450.08 714.291C1450.08 701.062 1453.04 688.911 1458.99 677.834C1464.92 666.751 1473.08 658.182 1483.46 652.121C1493.9 645.999 1505.29 642.935 1517.63 642.935C1527.22 642.935 1536.68 645.281 1546.02 649.975C1548.76 651.409 1550.72 652.121 1551.89 652.121C1553.65 652.121 1555.19 651.504 1556.49 650.269C1558.19 648.507 1559.4 646.065 1560.11 642.935H1563.54ZM1626.68 686.337C1640.26 686.337 1651.16 691.486 1659.38 701.779C1666.37 710.576 1669.86 720.68 1669.86 732.08C1669.86 740.099 1667.93 748.212 1664.08 756.42C1660.23 764.633 1654.91 770.822 1648.13 774.993C1641.4 779.163 1633.9 781.249 1625.61 781.249C1612.1 781.249 1601.36 775.871 1593.4 765.122C1586.68 756.064 1583.32 745.899 1583.32 734.621C1583.32 726.413 1585.34 718.267 1589.39 710.187C1593.5 702.04 1598.88 696.046 1605.54 692.203C1612.2 688.289 1619.24 686.337 1626.68 686.337ZM1623.65 692.687C1620.19 692.687 1616.7 693.733 1613.17 695.818C1609.71 697.836 1606.91 701.423 1604.76 706.567C1602.6 711.716 1601.53 718.334 1601.53 726.413C1601.53 739.448 1604.1 750.686 1609.26 760.134C1614.48 769.588 1621.33 774.309 1629.82 774.309C1636.15 774.309 1641.37 771.701 1645.48 766.49C1649.59 761.274 1651.65 752.316 1651.65 739.609C1651.65 723.711 1648.22 711.199 1641.37 702.074C1636.74 695.818 1630.83 692.687 1623.65 692.687ZM1709.7 705.399C1716.23 698.882 1720.08 695.134 1721.26 694.155C1724.19 691.681 1727.36 689.757 1730.75 688.389C1734.15 687.021 1737.51 686.337 1740.83 686.337C1746.45 686.337 1751.28 687.966 1755.33 691.225C1759.37 694.483 1762.08 699.204 1763.45 705.399C1770.17 697.575 1775.85 692.459 1780.48 690.051C1785.12 687.571 1789.88 686.337 1794.78 686.337C1799.54 686.337 1803.75 687.571 1807.4 690.051C1811.12 692.459 1814.07 696.435 1816.21 701.974C1817.65 705.755 1818.37 711.683 1818.37 719.768V758.277C1818.37 763.882 1818.79 767.73 1819.65 769.816C1820.3 771.245 1821.51 772.485 1823.27 773.53C1825.03 774.503 1827.9 774.993 1831.88 774.993V778.513H1787.63V774.993H1789.49C1793.34 774.993 1796.34 774.242 1798.5 772.746C1800 771.701 1801.08 770.044 1801.73 767.758C1801.99 766.651 1802.12 763.493 1802.12 758.277V719.768C1802.12 712.467 1801.24 707.318 1799.48 704.32C1796.93 700.15 1792.85 698.064 1787.24 698.064C1783.78 698.064 1780.29 698.943 1776.76 700.706C1773.3 702.396 1769.09 705.594 1764.14 710.282L1763.94 711.36L1764.14 715.564V758.277C1764.14 764.405 1764.46 768.214 1765.12 769.715C1765.83 771.217 1767.14 772.485 1769.03 773.53C1770.92 774.503 1774.16 774.993 1778.72 774.993V778.513H1733.39V774.993C1738.36 774.993 1741.75 774.409 1743.57 773.235C1745.47 772.062 1746.78 770.299 1747.49 767.958C1747.82 766.846 1747.98 763.621 1747.98 758.277V719.768C1747.98 712.467 1746.9 707.223 1744.75 704.026C1741.88 699.855 1737.87 697.77 1732.71 697.77C1729.18 697.77 1725.69 698.715 1722.23 700.606C1716.82 703.475 1712.64 706.7 1709.7 710.282V758.277C1709.7 764.144 1710.1 767.958 1710.88 769.715C1711.73 771.473 1712.93 772.813 1714.5 773.725C1716.13 774.57 1719.4 774.993 1724.29 774.993V778.513H1679.94V774.993C1684.05 774.993 1686.93 774.57 1688.56 773.725C1690.19 772.813 1691.43 771.412 1692.27 769.521C1693.13 767.563 1693.55 763.815 1693.55 758.277V724.067C1693.55 714.224 1693.25 707.874 1692.67 705.004C1692.21 702.858 1691.5 701.39 1690.51 700.606C1689.53 699.76 1688.2 699.338 1686.5 699.338C1684.67 699.338 1682.49 699.827 1679.94 700.8L1678.47 697.286L1705.5 686.337H1709.7V705.399ZM1832.66 697.87L1860.27 686.726H1863.99V707.646C1868.63 699.76 1873.26 694.255 1877.9 691.125C1882.59 687.933 1887.52 686.337 1892.68 686.337C1901.68 686.337 1909.19 689.857 1915.19 696.891C1922.57 705.494 1926.25 716.704 1926.25 730.517C1926.25 745.96 1921.82 758.733 1912.94 768.837C1905.63 777.111 1896.43 781.249 1885.34 781.249C1880.5 781.249 1876.32 780.565 1872.8 779.197C1870.19 778.218 1867.25 776.266 1863.99 773.33V800.606C1863.99 806.728 1864.35 810.604 1865.07 812.233C1865.85 813.929 1867.16 815.264 1868.98 816.243C1870.88 817.222 1874.27 817.711 1879.17 817.711V821.325H1832.18V817.711H1834.62C1838.21 817.778 1841.28 817.094 1843.82 815.659C1845.06 814.942 1846.01 813.768 1846.66 812.139C1847.38 810.576 1847.74 806.534 1847.74 800.016V715.37C1847.74 709.57 1847.48 705.883 1846.96 704.32C1846.43 702.758 1845.59 701.584 1844.41 700.8C1843.3 700.022 1841.77 699.627 1839.81 699.627C1838.24 699.627 1836.25 700.083 1833.84 701.001L1832.66 697.87ZM1863.99 713.412V746.844C1863.99 754.073 1864.28 758.833 1864.87 761.113C1865.79 764.894 1868 768.214 1871.53 771.083C1875.12 773.953 1879.62 775.388 1885.04 775.388C1891.57 775.388 1896.85 772.841 1900.9 767.758C1906.19 761.113 1908.83 751.76 1908.83 739.704C1908.83 726.024 1905.83 715.498 1899.82 708.135C1895.64 703.052 1890.68 700.511 1884.94 700.511C1881.81 700.511 1878.71 701.29 1875.64 702.858C1873.29 704.026 1869.41 707.546 1863.99 713.412ZM1990.18 765.612C1980.98 772.713 1975.2 776.817 1972.85 777.929C1969.33 779.558 1965.58 780.37 1961.6 780.37C1955.4 780.37 1950.27 778.251 1946.23 774.014C1942.24 769.782 1940.26 764.21 1940.26 757.304C1940.26 752.933 1941.24 749.157 1943.19 745.96C1945.87 741.533 1950.5 737.363 1957.09 733.448C1963.75 729.539 1974.78 724.784 1990.18 719.179V715.659C1990.18 706.734 1988.75 700.606 1985.87 697.286C1983.07 693.961 1978.96 692.298 1973.54 692.298C1969.43 692.298 1966.16 693.404 1963.75 695.623C1961.27 697.836 1960.03 700.378 1960.03 703.247L1960.23 708.914C1960.23 711.911 1959.44 714.224 1957.88 715.853C1956.37 717.483 1954.38 718.3 1951.91 718.3C1949.49 718.3 1947.5 717.455 1945.93 715.759C1944.43 714.063 1943.68 711.75 1943.68 708.819C1943.68 703.214 1946.55 698.064 1952.3 693.371C1958.04 688.683 1966.1 686.337 1976.48 686.337C1984.44 686.337 1990.96 687.671 1996.05 690.346C1999.91 692.365 2002.75 695.523 2004.58 699.827C2005.75 702.63 2006.34 708.363 2006.34 717.027V747.428C2006.34 755.964 2006.5 761.213 2006.83 763.165C2007.15 765.056 2007.67 766.329 2008.39 766.98C2009.18 767.63 2010.06 767.958 2011.04 767.958C2012.08 767.958 2012.99 767.73 2013.78 767.274C2015.15 766.424 2017.79 764.044 2021.71 760.134V765.612C2014.39 775.387 2007.41 780.27 2000.76 780.27C1997.56 780.27 1995.01 779.163 1993.12 776.95C1991.23 774.731 1990.25 770.956 1990.18 765.612ZM1990.18 759.256V725.14C1980.33 729.049 1973.97 731.824 1971.09 733.448C1965.94 736.317 1962.25 739.315 1960.03 742.445C1957.81 745.57 1956.7 748.99 1956.7 752.705C1956.7 757.398 1958.11 761.308 1960.91 764.438C1963.72 767.502 1966.95 769.032 1970.6 769.032C1975.56 769.032 1982.09 765.773 1990.18 759.256ZM2054.6 705.299C2065.11 692.659 2075.13 686.337 2084.66 686.337C2089.55 686.337 2093.76 687.571 2097.28 690.051C2100.81 692.459 2103.62 696.468 2105.7 702.074C2107.14 705.983 2107.86 711.978 2107.86 720.057V758.277C2107.86 763.949 2108.32 767.791 2109.23 769.816C2109.95 771.445 2111.09 772.713 2112.65 773.625C2114.29 774.537 2117.25 774.993 2121.57 774.993V778.513H2077.22V774.993H2079.08C2083.25 774.993 2086.16 774.375 2087.79 773.135C2089.49 771.834 2090.66 769.944 2091.31 767.469C2091.57 766.49 2091.7 763.426 2091.7 758.277V721.626C2091.7 713.479 2090.63 707.579 2088.47 703.931C2086.38 700.216 2082.82 698.359 2077.8 698.359C2070.04 698.359 2062.3 702.597 2054.6 711.066V758.277C2054.6 764.338 2054.96 768.086 2055.67 769.521C2056.59 771.412 2057.83 772.813 2059.39 773.725C2061.03 774.57 2064.29 774.993 2069.19 774.993V778.513H2024.84V774.993H2026.8C2031.36 774.993 2034.43 773.853 2036 771.573C2037.63 769.226 2038.45 764.794 2038.45 758.277V725.045C2038.45 714.291 2038.19 707.74 2037.66 705.399C2037.21 703.052 2036.45 701.457 2035.41 700.606C2034.43 699.76 2033.1 699.338 2031.4 699.338C2029.57 699.338 2027.38 699.827 2024.84 700.8L2023.37 697.286L2050.39 686.337H2054.6V705.299ZM2123.62 688.973H2165.42V692.593H2163.36C2160.43 692.593 2158.21 693.243 2156.71 694.544C2155.27 695.785 2154.55 697.347 2154.55 699.238C2154.55 701.779 2155.63 705.299 2157.78 709.798L2179.61 754.957L2199.69 705.494C2200.79 702.825 2201.35 700.183 2201.35 697.575C2201.35 696.402 2201.12 695.523 2200.67 694.939C2200.14 694.222 2199.32 693.666 2198.22 693.277C2197.11 692.821 2195.15 692.593 2192.35 692.593V688.973H2221.52V692.593C2219.1 692.854 2217.24 693.371 2215.94 694.155C2214.63 694.939 2213.2 696.402 2211.63 698.554C2211.04 699.466 2209.93 701.974 2208.3 706.083L2171.78 795.423C2168.26 804.092 2163.62 810.638 2157.88 815.069C2152.21 819.501 2146.72 821.72 2141.44 821.72C2137.58 821.72 2134.42 820.608 2131.94 818.395C2129.46 816.176 2128.22 813.635 2128.22 810.771C2128.22 808.035 2129.1 805.816 2130.86 804.12C2132.69 802.491 2135.17 801.679 2138.3 801.679C2140.46 801.679 2143.39 802.396 2147.11 803.831C2149.72 804.81 2151.36 805.294 2152.01 805.294C2153.97 805.294 2156.09 804.287 2158.37 802.263C2160.72 800.244 2163.07 796.335 2165.42 790.535L2171.78 774.993L2139.58 707.451C2138.6 705.427 2137.03 702.919 2134.88 699.922C2133.24 697.642 2131.91 696.113 2130.86 695.329C2129.36 694.289 2126.95 693.371 2123.62 692.593V688.973Z" fill="white"/>
</g>
<defs>
<clipPath id="clip0">
<rect width="2289" height="823" fill="white"/>
</clipPath>
</defs>
</svg>
